<?xml version="1.0" encoding="UTF-8" standalone="no"?>
<!-- Created with Inkscape (http://www.inkscape.org/) -->

<svg
   xmlns:dc="http://purl.org/dc/elements/1.1/"
   xmlns:cc="http://creativecommons.org/ns#"
   xmlns:rdf="http://www.w3.org/1999/02/22-rdf-syntax-ns#"
   xmlns:svg="http://www.w3.org/2000/svg"
   xmlns="http://www.w3.org/2000/svg"
   version="1.1"
   width="210mm"
   height="297mm"
   id="svg3023">
  <defs
     id="defs3025" />
  <metadata
     id="metadata3028">
    <rdf:RDF>
      <cc:Work
         rdf:about="">
        <dc:format>image/svg+xml</dc:format>
        <dc:type
           rdf:resource="http://purl.org/dc/dcmitype/StillImage" />
        <dc:title></dc:title>
      </cc:Work>
    </rdf:RDF>
  </metadata>
  <g
     id="layer1">
    <path
       d="m 220.15417,449.28468 c 0,-3.33333 -0.38889,-4.5 -1.5,-4.5 -0.825,0 -1.5,-0.45 -1.5,-1 0,-0.55 1.8,-1 4,-1 2.2,0 4,0.45 4,1 0,0.55 -0.675,1 -1.5,1 -1.11111,0 -1.5,1.16667 -1.5,4.5 0,2.475 -0.45,4.5 -1,4.5 -0.55,0 -1,-2.025 -1,-4.5 z m 6.33763,3.06255 c 0.30338,-0.7906 1.03141,-3.21933 1.61784,-5.39718 1.56863,-5.82546 3.58539,-5.99175 6.01639,-0.49607 1.11548,2.52171 2.02814,4.97773 2.02814,5.45782 0,1.1924 -1.73914,1.10397 -2.5,-0.12712 -0.9436,-1.52678 -4.2129,-1.19055 -4.86163,0.5 -0.31658,0.825 -1.08787,1.5 -1.71397,1.5 -0.62611,0 -0.89016,-0.64685 -0.58677,-1.43745 z m 5.66237,-4.50353 c 0,-0.51754 -0.45,-1.2191 -1,-1.55902 -0.55,-0.33992 -1,0.0835 -1,0.94098 0,0.85746 0.45,1.55902 1,1.55902 0.55,0 1,-0.42344 1,-0.94098 z m -26.98469,0.69098 c 0.0272,-7.53988 2.6732,-8.72051 5.43148,-2.42345 l 1.39006,3.17345 0.0816,-3.25 c 0.0573,-2.28455 0.55895,-3.25 1.68856,-3.25 1.05452,0 1.39831,0.5438 1,1.58179 -0.33385,0.86998 -0.60699,3.11998 -0.60699,5 0,4.46015 -2.59804,4.60381 -4.43078,0.24501 l -1.33423,-3.1732 -0.69695,3.1732 c -1.00236,4.56373 -2.54068,3.90711 -2.52273,-1.0768 z m -7.51531,2.37186 c -3.28772,-0.70303 -3.29226,-0.71789 -2.11857,-6.92986 0.79279,-4.19595 0.89595,-4.29074 3.96627,-3.64464 4.55648,0.95883 5.68464,2.45264 1.8523,2.45264 -1.76,0 -3.2,0.45 -3.2,1 0,0.55 0.9,1 2,1 1.1,0 2,0.49878 2,1.10841 0,0.68296 -0.9596,0.86756 -2.5,0.48095 -1.78171,-0.44718 -2.5,-0.22216 -2.5,0.78318 0,0.77585 1.125,1.693 2.5,2.0381 1.375,0.34511 2.5,1.06889 2.5,1.60841 0,1.05837 -0.0283,1.05901 -4.5,0.10281 z m 41.07363,-2.78843 c -0.37415,-2.10838 -0.9116,-4.62093 -1.19434,-5.58343 -0.32599,-1.10975 0.0272,-1.75 0.96542,-1.75 0.94678,0 1.72283,1.44027 2.15529,4 0.60758,3.59624 0.96974,4 3.5879,4 1.60165,0 2.9121,0.45 2.9121,1 0,0.55 -0.7875,1.00614 -1.75,1.01365 -0.9625,0.008 -2.70538,0.27006 -3.87306,0.58344 -1.82361,0.48941 -2.219,0.0291 -2.80331,-3.26366 z m -50.57363,-0.70304 c 0,-0.84496 0.41339,-2.56996 0.91864,-3.83334 0.50526,-1.26338 1.17708,-3.11307 1.49294,-4.11043 0.31586,-0.99736 0.98135,-1.56181 1.47885,-1.25434 1.21518,0.75102 -1.14409,9.81894 -2.68862,10.33378 -0.66099,0.22033 -1.20181,-0.29072 -1.20181,-1.13567 z m 65.594,-4.30853 c -0.8767,-2.57298 -1.594,-4.78808 -1.594,-4.92245 0,-0.13437 1.5662,-0.7612 3.48045,-1.39296 3.9708,-1.31048 5.51955,-0.73454 5.51955,2.05257 0,1.06754 0.45,1.94098 1,1.94098 2.28007,0 0.84467,4.02896 -1.95034,5.47432 -4.27931,2.21292 -4.69699,2.00895 -6.45566,-3.15246 z m 6.8198,0.81762 c 0.81711,-1.32211 -0.31973,-1.97684 -2.46046,-1.41703 -1.06196,0.27771 -1.68435,0.90377 -1.38308,1.39124 0.70009,1.13276 3.14924,1.14919 3.84354,0.0258 z m -1.6315,-4.98498 c 0.28658,-0.86063 -0.19425,-1.221 -1.33427,-1 -0.98026,0.19002 -1.98391,0.95098 -2.23033,1.691 -0.28658,0.86063 0.19425,1.221 1.33427,1 0.98026,-0.19002 1.98391,-0.95098 2.23033,-1.691 z m -80.71414,5.93462 c -1.1917,-0.77562 -1.229,-1.60891 -0.22243,-4.96854 1.49515,-4.99036 2.4829,-5.64131 6.21463,-4.09558 2.77994,1.15149 3.84024,3.74106 2.20239,5.37891 -0.40548,0.40549 -0.74298,1.49299 -0.75,2.41667 -0.0146,1.92609 -5.10231,2.79302 -7.44459,1.26854 z m 4.68184,-2.33912 c -0.22917,-0.6875 -1.01667,-1.25 -1.75,-1.25 -0.73333,0 -1.52083,0.5625 -1.75,1.25 -0.24786,0.74359 0.46111,1.25 1.75,1.25 1.28889,0 1.99786,-0.50641 1.75,-1.25 z m 2.25,-3.64301 c 0,-1.12404 -2.60112,-2.17254 -3.40223,-1.37142 -1.20377,1.20376 -0.54696,2.26443 1.40223,2.26443 1.1,0 2,-0.40186 2,-0.89301 z m -14,3.34335 c 0,-0.30231 0.72956,-1.98981 1.62124,-3.75 l 1.62125,-3.20034 -2.94058,2.764 c -3.48602,3.27669 -4.52747,2.67059 -3.76726,-2.19249 l 0.5583,-3.57151 -1.57841,2.75 c -1.41249,2.46092 -3.51454,3.73856 -3.51454,2.13615 0,-2.09945 4.62838,-8.40523 5.95334,-8.11092 1.65386,0.36736 1.68187,0.61195 0.59852,5.22477 l -0.70458,3 3.08296,-2.94341 c 2.38767,-2.2796 3.35197,-2.67438 4.27586,-1.75049 0.92388,0.92388 0.6998,2.20788 -0.9936,5.69341 -1.20258,2.47527 -2.64235,4.50049 -3.1995,4.50049 -0.55715,0 -1.013,-0.24735 -1.013,-0.54966 z m 94.65499,-1.27908 c -3.01951,-3.33651 -1.20927,-10.17126 2.69393,-10.17126 2.77113,0 5.65108,3.15789 5.65108,6.19646 0,5.1237 -5.10482,7.55517 -8.34501,3.9748 z m 6.34501,-2.69646 c 0,-2.83477 -1.32198,-4.4748 -3.60699,-4.4748 -2.81226,0 -3.28754,2.96261 -0.86407,5.38608 1.69605,1.69605 4.47106,1.13045 4.47106,-0.91128 z m 6.17796,-5.58675 c -1.75,-3.04069 -2.6242,-3.76259 -3.58787,-2.96282 -0.70076,0.58158 -1.56416,0.76736 -1.91867,0.41285 -0.67595,-0.67594 5.07979,-5.33808 6.59025,-5.33808 0.48021,0 0.58916,0.89462 0.24212,1.98805 -0.36534,1.15109 0.11562,3.25194 1.14243,4.99019 1.13806,1.92659 1.42805,3.34749 0.80945,3.96609 -0.61861,0.61861 -1.79289,-0.47634 -3.27771,-3.05628 z m -118.75486,1.61195 c -0.99039,-2.54855 -2.3516,-3.46549 -5.1731,-3.48469 -3.27011,-0.0222 -2.7411,-1.09639 2.40592,-4.88514 3.63193,-2.67348 4.75699,-3.08677 5.44447,-2 0.86525,1.36778 0.29014,6.58793 -1.14246,10.36983 -0.75761,2 -0.75761,2 -1.53483,0 z m 0.5769,-5.96862 c 0,-0.89208 -0.5866,-1.24351 -1.49426,-0.89521 -0.82184,0.31537 -1.24528,0.97625 -0.94098,1.46861 0.87262,1.41193 2.43524,1.04399 2.43524,-0.5734 z m 125.06148,0.5301 c -2.81306,-2.81306 -2.64834,-6.63085 0.37146,-8.6095 2.81921,-1.84722 5.77195,-0.80617 7.64616,2.69582 0.91001,1.70036 0.75085,2.6035 -0.83306,4.72708 -2.53467,3.39828 -4.62726,3.7439 -7.18456,1.1866 z m 5.78578,-3.50687 c 0.42747,-2.2197 -2.38096,-4.67078 -4.44446,-3.87894 -2.99925,1.15092 -0.65762,6.71263 2.5649,6.09203 0.83013,-0.15987 1.67593,-1.15576 1.87956,-2.21309 z m -148.59726,-3.58577 c -1.70225,-0.68422 -2.25,-1.71561 -2.25,-4.23662 0,-4.02999 1.50782,-5.73222 5.07756,-5.73222 4.95353,0 6.98557,5.02778 3.45782,8.55553 -2.67267,2.67267 -2.98022,2.74182 -6.28538,1.41331 z m 4.22852,-2.59022 c 2.06803,-2.06803 1.5592,-4.87862 -0.88323,-4.87862 -2.32282,0 -4.1273,2.67122 -3.28582,4.86408 0.79495,2.0716 2.10742,2.07618 4.16905,0.0145 z m 92.07334,-0.2947 c -0.31139,-0.50385 -0.10741,-2.12271 0.45329,-3.59746 1.37116,-3.60642 -0.26263,-9.44027 -3.49391,-12.4759 -2.92,-2.7432 -3.26654,-5.01717 -0.76124,-4.99525 1.42839,0.0125 1.48796,0.18115 0.32415,0.9177 -1.15864,0.73328 -0.83338,1.57718 1.73555,4.50303 3.85599,4.39173 4.8595,7.95271 3.36036,11.92437 -0.6244,1.65424 -1.02077,3.12222 -0.88081,3.26218 0.93269,0.93269 7.23863,-3.57567 9.71905,-6.94852 3.18483,-4.33069 3.77857,-6.62983 1.7417,-6.74436 -2.23268,-0.12553 2.67347,-1.7894 5.25,-1.78048 l 2.5,0.009 -2.55584,0.93967 c -1.57965,0.58076 -3.031,2.25368 -3.79987,4.37996 -0.68422,1.89217 -3.30994,5.25879 -5.83495,7.48139 -4.56864,4.02148 -6.67821,4.87129 -7.75748,3.12501 z m 60.09357,-3.93498 -3.67958,-3.76823 2.33153,-2.19036 c 2.88258,-2.70804 4.11157,-2.823 2.7378,-0.25609 -1.66578,3.11255 -1.32417,4.29077 0.89908,3.10092 2.76906,-1.48195 3.51277,-1.27874 1.99835,0.54602 -1.01902,1.22784 -1.05096,1.99965 -0.14292,3.45364 2.16649,3.46911 -0.43466,2.91307 -4.14426,-0.8859 z m -117.89543,2.18878 c 0.6875,-0.27741 1.8125,-0.27741 2.5,0 0.6875,0.27741 0.125,0.50439 -1.25,0.50439 -1.375,0 -1.9375,-0.22698 -1.25,-0.50439 z m -10.95938,-3.15417 c -6.19221,-3.52851 -11.05088,-8.04715 -18.47665,-17.18355 -3.35266,-4.125 -8.56949,-10.12556 -11.59294,-13.33459 -6.32074,-6.70867 -9.30782,-11.69389 -8.40951,-14.03485 0.34414,-0.89681 1.42733,-1.57836 2.40709,-1.51456 1.66951,0.10872 1.67148,0.14473 0.0314,0.57333 -0.9625,0.25152 -1.75,1.13074 -1.75,1.95382 0,1.90504 4.95669,9.09599 8.51752,12.35685 1.50149,1.375 5.21519,5.65 8.25268,9.5 11.52868,14.61254 16.78995,19.16001 26.2298,22.6712 3.38924,1.26064 3.88291,1.67652 2,1.68484 -1.375,0.006 -4.61922,-1.19654 -7.20938,-2.67249 z m 17.36881,1.47218 c 3.61795,-1.60778 6.91991,-4.71834 6.21664,-5.85626 -0.31723,-0.51328 0.0309,-0.84982 0.77358,-0.74787 3.17871,0.43635 6.85035,-0.12729 6.85035,-1.0516 0,-0.55 -1.4625,-1.06742 -3.25,-1.14983 -3.02493,-0.13946 -3.05956,-0.17868 -0.5,-0.56642 2.696,-0.40841 3.74906,-2.62161 1.725,-3.62542 -0.56375,-0.27958 -0.47578,-0.40026 0.19548,-0.26817 1.30256,0.25631 3.05981,5.4282 2.27551,6.69722 -0.25791,0.41731 -1.75939,1.04218 -3.33662,1.3886 -1.57723,0.34642 -4.35312,1.95604 -6.16864,3.57693 -1.81552,1.6209 -4.2324,2.91054 -5.37084,2.86587 -1.7996,-0.0706 -1.72262,-0.23554 0.58954,-1.26305 z m -54.15943,-3.46864 c 0,-0.4471 1.34177,-2.09841 2.98171,-3.66957 2.16585,-2.07502 2.69981,-3.19634 1.95144,-4.09806 -0.56664,-0.68277 -0.64798,-1.47767 -0.18074,-1.76644 1.03484,-0.63957 6.3956,5.86563 5.53934,6.72189 -0.33425,0.33426 -1.22791,0.093 -1.9859,-0.53604 -1.0759,-0.89292 -1.98536,-0.56204 -4.14672,1.50868 -2.82167,2.70332 -4.15913,3.29487 -4.15913,1.83954 z m 172.03514,-4.69195 c -4.33679,-4.25404 -3.30583,-5.70172 1.46762,-2.06083 l 3.5572,2.71321 1.93675,-2.32376 c 1.06521,-1.27807 1.95172,-1.94319 1.97002,-1.47805 0.0604,1.53512 -3.37753,6.65534 -4.43234,6.60124 -0.56891,-0.0292 -2.59358,-1.5825 -4.49925,-3.45181 z m -121.48235,0.59027 c -0.32198,-0.52097 -0.15917,-1.21065 0.3618,-1.53262 0.52097,-0.32198 1.21065,-0.15917 1.53262,0.3618 0.32198,0.52097 0.15917,1.21065 -0.3618,1.53262 -0.52097,0.32198 -1.21065,0.15917 -1.53262,-0.3618 z m -57.51761,-5.01967 c -1.68134,-3.14162 -1.21929,-4.43105 2.49406,-6.96 4.71149,-3.20872 5.8697,-1.69855 1.46437,1.90935 -2.68621,2.19997 -3.22164,3.13592 -2.31681,4.04986 0.90791,0.91705 1.97515,0.69524 4.67082,-0.97077 4.30997,-2.66371 5.67244,-1.22446 1.65361,1.74679 -3.62007,2.67643 -6.60882,2.76076 -7.96605,0.22477 z m 133.77732,-0.74885 c 0.72187,-0.28887 1.58437,-0.25335 1.91667,0.0789 0.33229,0.33229 -0.25834,0.56864 -1.3125,0.52522 -1.16495,-0.048 -1.4019,-0.28494 -0.60417,-0.60416 z m -68.3125,-1.31689 c -1.83166,-0.78709 -1.78958,-0.86406 0.5,-0.9144 1.375,-0.0302 3.175,0.38124 4,0.9144 1.23805,0.80009 1.15073,0.95977 -0.5,0.9144 -1.1,-0.0302 -2.9,-0.44171 -4,-0.9144 z m 73.5,-0.20449 c 9.1669,-3.92023 14.16872,-6.76892 21.23751,-12.09541 7.58247,-5.71356 8.10826,-5.94772 9.39718,-4.18502 0.75092,1.02695 1.33485,2.56867 1.29763,3.42605 -0.0451,1.0392 -0.42942,0.8088 -1.15281,-0.69113 -0.59683,-1.2375 -1.61762,-2.25 -2.26844,-2.25 -0.65081,0 -3.97884,2.24357 -7.39562,4.98572 -6.09215,4.88927 -19.46705,12.08017 -22.22038,11.9466 -0.76729,-0.0372 -0.27007,-0.54879 1.10493,-1.13681 z m 46.00639,-1.74547 c -1.92148,-1.59289 -3.16813,-3.22164 -2.77032,-3.61944 0.86438,-0.86439 8.76393,4.16849 8.76393,5.58359 0,1.78101 -2.44068,0.98118 -5.99361,-1.96415 z m -126.25639,-0.62201 c -2.66897,-1.44794 -2.75142,-1.74879 -2.79803,-10.20997 -0.0494,-8.95733 -1.8916,-15.06472 -4.83307,-16.02244 -1.11536,-0.36316 -1.2492,0.60589 -0.69562,5.03662 0.37701,3.01746 0.38809,6.67115 0.0246,8.11931 l -0.66085,2.63301 -2.82984,-2.01502 c -5.11811,-3.64442 -18.35292,-23.90716 -16.69687,-25.56322 0.26911,-0.26911 1.22281,1.21687 2.11934,3.30219 1.89345,4.40418 2.74155,5.79582 8.04111,13.19461 3.37008,4.70501 4.02064,5.20159 4.63168,3.53538 0.59755,-1.62943 0.76961,-1.47248 1.07921,0.98438 0.54791,4.34814 2.86831,4.54411 2.86831,0.24224 0,-1.92585 -0.30369,-4.29295 -0.67487,-5.26022 -0.62625,-1.63198 -0.72924,-1.61986 -1.42971,0.16821 -0.59254,1.51258 -0.76996,1.23885 -0.82514,-1.27303 -0.0394,-1.79344 -1.61823,-5.74927 -3.59206,-9 -8.86869,-14.60602 -11.37772,-35.84671 -6.13728,-51.95629 1.40337,-4.31408 4.01915,-10.5413 5.81284,-13.83826 4.1433,-7.61574 15.95253,-19.51224 22.82722,-22.9959 l 5.29318,-2.68226 -5.10167,-2.91369 c -2.80592,-1.60252 -5.73252,-2.91368 -6.50355,-2.91368 -0.77103,0 -4.10068,2.75793 -7.39922,6.12873 -5.62067,5.7438 -6.17862,6.06678 -8.88355,5.14237 -2.06532,-0.70583 -2.78158,-1.52457 -2.51838,-2.87873 0.42568,-2.19014 0.47163,-6.19189 0.13728,-11.95617 -0.29412,-5.07073 2.61268,-11.01541 7.47291,-15.28274 3.82296,-3.3566 12.59886,-8.18409 14.73876,-8.10757 0.70578,0.0252 -1.41676,1.30988 -4.71676,2.85476 -6.92922,3.24387 -13.96515,9.94871 -15.58245,14.84917 -0.61584,1.86603 -0.83904,5.04819 -0.49599,7.07148 0.83569,4.92886 0.83336,6.1576 -0.0183,9.6787 -0.68322,2.82464 -0.61732,2.91232 1.12752,1.5 1.01923,-0.825 1.53443,-0.96859 1.14488,-0.3191 -0.38955,0.6495 -0.19509,1.49806 0.43213,1.88571 0.67121,0.41483 3.55001,-1.81955 6.99723,-5.4309 3.26436,-3.41979 6.72116,-6.13571 7.80948,-6.13571 1.07394,0 4.12003,1.33284 6.76907,2.96186 7.47456,4.59647 17.34223,6.489 17.30801,3.31952 -0.005,-0.42976 -2.92964,-2.33302 -6.5,-4.22947 -3.57036,-1.89645 -6.49156,-3.74781 -6.49156,-4.11414 0,-0.95212 8.19111,-3.95286 10.53343,-3.85882 1.95085,0.0783 1.82295,0.15755 -2.51436,1.55751 -0.98773,0.31881 0.0149,1.40904 3.01067,3.27365 4.0751,2.5364 5.60336,2.84702 16.48093,3.34969 12.75823,0.58958 19.13771,2.4139 29.33139,8.3878 16.2491,9.5226 27.92927,29.21853 29.71196,50.1024 0.38733,4.5375 0.90349,8.25 1.14704,8.25 0.24354,0 2.43543,-1.16776 4.87087,-2.59502 3.85414,-2.25868 4.42807,-3.03372 4.42807,-5.97977 0,-1.8616 -0.73133,-5.21251 -1.62518,-7.44646 -0.89385,-2.23395 -1.39446,-4.29244 -1.11247,-4.57444 0.86956,-0.86955 3.73771,8.74345 3.73663,12.52383 -9.2e-4,3.22952 -0.46537,3.83266 -4.84603,6.293 -7.81445,4.38887 -16.27677,14.77886 -12.03693,14.77886 0.61382,0 3.26161,-1.575 5.88398,-3.5 5.77111,-4.23638 7,-4.35603 7,-0.6815 0,10.18187 -10.03639,29.28994 -18.44002,35.10757 -1.13299,0.78434 0.13361,-0.79066 2.81466,-3.5 4.88658,-4.93814 11.98359,-17.96723 13.25816,-24.34006 0.73041,-3.65205 0.58127,-3.68672 -4.48969,-1.04358 -3.12923,1.63104 -4.43974,3.24435 -6.50642,8.00969 -9.35209,21.56412 -32.48705,36.9136 -55.63669,36.9136 -10.61413,0 -23.93279,-4.07133 -32.41912,-9.91008 -2.44268,-1.6806 -4.69765,-3.05564 -5.01106,-3.05564 -0.3134,0 -0.56982,2.84336 -0.56982,6.31857 0,6.13019 0.0969,6.3668 3.25,7.93605 1.7875,0.88961 2.8,1.62823 2.25,1.64139 -0.55,0.0132 -2.2375,-0.64744 -3.75,-1.46798 z m 51.38671,-6.21579 c -0.72144,-0.24048 -1.78716,0.0382 -2.36826,0.61931 -0.74207,0.74207 -0.35164,0.87221 1.31171,0.43724 1.3522,-0.35361 1.8055,-0.8069 1.05655,-1.05655 z m 13.84798,-7.02126 c -0.0132,-1.45727 -0.14929,-1.48367 -0.98469,-0.19098 -1.2656,1.95837 -1.2656,3.28218 0,2.5 0.55,-0.33992 0.99311,-1.37898 0.98469,-2.30902 z m -56.98469,1.41601 c 0,-0.21616 -0.69837,-0.661 -1.55194,-0.98855 -0.88992,-0.34149 -1.29132,-0.17385 -0.94098,0.39301 0.58726,0.95021 2.49292,1.40545 2.49292,0.59554 z m 64.77425,-4.52278 c 8.02934,-6.34683 14.77612,-15.53245 18.97505,-25.83421 1.76439,-4.3288 1.88088,-5.25 0.6639,-5.25 -3.37779,0 -2.04211,-6.57331 2.02086,-9.94528 1.11131,-0.9223 1.56375,-3.0786 1.55839,-7.42716 -0.008,-6.77932 -1.67913,-18.48109 -2.8689,-20.09327 -0.41981,-0.56886 -1.37383,-2.96935 -2.12003,-5.33442 -0.7462,-2.36507 -1.71521,-4.52169 -2.15336,-4.79248 -0.43815,-0.27079 -1.56895,-2.11987 -2.51289,-4.10907 -3.11072,-6.55537 -15.1401,-17.64734 -23.49898,-21.6678 -8.04834,-3.8711 -9.35165,-4.27018 -8.27936,-2.53517 0.83987,1.35894 -1.54402,6.0319 -2.70964,5.3115 -1.50766,-0.93178 -0.90156,0.30586 0.84267,1.7207 1.45936,1.18377 1.57044,1.16624 0.80804,-0.12755 -0.74317,-1.26115 -0.63188,-1.29589 0.69891,-0.21812 1.25537,1.01667 1.35813,1.75801 0.49672,3.58333 -0.97963,2.07583 -3.69563,3.27727 -3.69563,1.63479 0,-0.36667 -0.69,-0.66667 -1.53333,-0.66667 -1.81008,0 -0.4139,1.70155 1.65263,2.01409 3.09002,0.46734 4.05771,1.72844 2.67926,3.49161 -1.16376,1.48855 -1.11561,1.51744 0.46377,0.27829 1.3524,-1.06106 1.49838,-1.70072 0.62756,-2.75 -0.73406,-0.88448 -0.76784,-1.36732 -0.0957,-1.36732 1.56066,0 2.06048,2.2577 0.96857,4.375 -0.65973,1.27927 -0.57013,2.61647 0.282,4.20868 0.68692,1.28353 1.29536,4.56179 1.35208,7.28503 0.0567,2.72323 0.32813,4.89622 0.60313,4.82886 1.28711,-0.31527 5,2.53446 5,3.83761 0,0.80565 0.9,1.46482 2,1.46482 1.1,0 2,0.46156 2,1.02568 0,0.58844 1.25492,0.37674 2.9438,-0.49662 2.19876,-1.13702 3.60722,-1.27006 5.5651,-0.52568 1.44171,0.54814 3.717,0.99662 5.0562,0.99662 3.05735,0 3.17018,1.61167 0.1849,2.64112 -2.03628,0.7022 -1.92509,0.82734 1.17051,1.31739 4.13232,0.65417 5.4375,3.04149 1.66282,3.04149 -2.66943,0 -3.66961,2.45337 -1.33333,3.27057 0.89226,0.3121 0.67762,1.10062 -0.75,2.75522 -1.1,1.2749 -1.50379,2.03006 -0.89732,1.67814 0.60647,-0.35193 1.95647,0.0218 3,0.83056 1.62966,1.26298 1.65044,1.38444 0.14732,0.86097 -1.21026,-0.42147 -1.75,-0.0956 -1.75,1.05657 0,0.9163 0.35899,1.44414 0.79775,1.17297 0.43876,-0.27117 1.40433,-0.11814 2.14571,0.34006 1.81546,1.12201 0.49982,4.41902 -1.46283,3.66588 -2.20586,-0.84647 -7.55166,0.44124 -7.25232,1.74695 0.29852,1.30213 -5.30534,8.62204 -6.60075,8.62208 -0.47985,2e-5 -0.25485,-0.74726 0.5,-1.66063 1.25624,-1.52005 1.18194,-1.54201 -0.87756,-0.25945 -1.2375,0.77066 -2.25,1.76952 -2.25,2.21967 0,0.45016 0.44322,0.54455 0.98494,0.20975 0.61629,-0.38089 0.74567,0.62633 0.34566,2.69098 -0.3516,1.81484 -1.20297,3.63615 -1.89193,4.04735 -0.68897,0.41121 -1.02526,1.61725 -0.74731,2.68011 0.32589,1.24621 -0.22176,2.38654 -1.54217,3.21115 -1.31109,0.81879 -1.7232,1.66946 -1.14581,2.36518 0.54786,0.66012 0.34892,2.63839 -0.50695,5.0412 -0.95166,2.67177 -1.42288,3.24394 -1.45254,1.76374 -0.0792,-3.95312 -1.5419,-3.2114 -1.62536,0.8242 -0.0448,2.16669 0.24362,3.41344 0.64093,2.77057 0.39732,-0.64288 2.63215,-1.3049 4.96629,-1.47115 3.16539,-0.22546 3.9555,-0.0139 3.10907,0.83254 -0.62415,0.62415 -1.13482,2.07982 -1.13482,3.23482 0,1.155 -0.47491,2.57491 -1.05536,3.15536 -1.13585,1.13585 -0.25415,6.34464 1.07397,6.34464 0.44099,0 3.03102,-1.7621 5.75564,-3.91579 z m -68.94092,1.27107 c -0.18333,-0.44627 -0.92094,-0.89763 -1.63914,-1.00304 -1.02618,-0.15061 -1.0492,0.11753 -0.1075,1.25222 1.19958,1.4454 2.37398,1.27786 1.74664,-0.24918 z m 59.95443,-2.49199 c -0.24965,-0.74895 -0.70294,-0.29565 -1.05655,1.05655 -0.43497,1.66335 -0.30483,2.05378 0.43724,1.31171 0.5811,-0.5811 0.85979,-1.64682 0.61931,-2.36826 z m -64.44268,-0.40642 c -0.32569,-0.84872 -0.80663,-1.32866 -1.06875,-1.06653 -0.26213,0.26213 -0.17998,0.95654 0.18255,1.54313 0.98605,1.59546 1.56238,1.28551 0.8862,-0.4766 z m -5.34508,-9.89785 c 0,-1.05548 -1.91911,-1.49891 -2.48992,-0.57533 -0.34546,0.55897 0.0734,1.01631 0.9309,1.01631 0.85746,0 1.55902,-0.19844 1.55902,-0.44098 z m 46,-2 c 0,-0.24254 -0.45,-0.7191 -1,-1.05902 -0.55,-0.33992 -1,-0.14148 -1,0.44098 0,0.58246 0.45,1.05902 1,1.05902 0.55,0 1,-0.19844 1,-0.44098 z m -53.28521,-2.30902 c -0.14996,-0.9625 -0.62369,-2.3125 -1.05274,-3 -0.74494,-1.19369 0.49901,-1.75698 2.83795,-1.28509 0.55,0.11097 0.66152,-0.13673 0.24782,-0.55043 -0.8636,-0.86359 2.03791,-4.41448 3.60717,-4.41448 0.64058,0 0.58059,0.46442 -0.15499,1.2 -0.66,0.66 -1.2,1.59214 -1.2,2.07143 0,0.47928 0.72857,0.14286 1.61905,-0.74762 0.89047,-0.89048 1.33417,-1.90392 0.986,-2.2521 -0.7818,-0.78179 4.36547,-6.28537 5.83204,-6.23575 0.5846,0.0198 -0.28709,1.15943 -1.93709,2.53255 -1.86376,1.55101 -2.27144,2.22912 -1.07639,1.79042 2.66268,-0.97746 5.70035,-4.15094 4.39106,-4.58737 -1.02911,-0.34304 13.60825,-11.80351 14.99405,-11.73976 0.38021,0.0175 -0.11118,0.64055 -1.09197,1.38456 -1.62123,1.22985 -1.51306,1.34171 1.19053,1.23122 2.76187,-0.11287 2.86141,-0.24569 1.39696,-1.8639 -1.44809,-1.60012 -1.382,-1.90245 0.80947,-3.70317 1.31246,-1.07844 3.96129,-2.66927 5.88629,-3.53516 3.2238,-1.45012 3.88411,-1.43512 8.36738,0.19014 5.71329,2.07117 6.43699,3.63875 1.88262,4.07787 -3.77386,0.36387 -4.22582,1.81421 -1,3.209 1.2375,0.53508 2.925,1.39486 3.75,1.91064 0.825,0.51578 2.92531,1.51024 4.66736,2.20992 3.05676,1.22772 3.16151,1.46568 3,6.81461 -0.14703,4.8693 -0.43182,5.58013 -2.34474,5.8525 -1.19756,0.17052 -2.71516,0.95802 -3.37244,1.75 -1.72573,2.07937 -4.63091,1.76887 -5.23993,-0.56003 -0.28766,-1.1 -1.01514,-2 -1.61663,-2 -0.60149,0 -1.09362,0.9 -1.09362,2 0,2.86579 -1.23169,2.45879 -3.24049,-1.07079 -1.13845,-2.00033 -2.38244,-2.94939 -3.59638,-2.74374 -1.02073,0.17293 -2.6226,-0.3219 -3.55969,-1.09963 -1.46847,-1.21872 -1.87283,-1.21871 -2.92744,6e-5 -0.67299,0.77776 -1.05036,1.32655 -0.83859,1.21955 0.21176,-0.107 1.41419,1.02854 2.67205,2.52343 1.25787,1.49489 3.96316,3.37564 6.01177,4.17945 3.55192,1.39366 3.61463,1.49613 1.35175,2.20848 -1.32762,0.41794 -0.0332,0.51597 2.93829,0.22253 2.95556,-0.29186 6.73845,-0.008 8.52902,0.63907 3.0408,1.09956 3.42237,0.95893 6.93873,-2.55743 2.04654,-2.04654 3.72098,-4.10046 3.72098,-4.56428 0,-0.46381 0.98183,-1.53099 2.18185,-2.37152 1.70446,-1.19385 2.52496,-1.27151 3.75,-0.35493 1.30972,0.97994 1.36215,0.94228 0.31815,-0.22848 -2.1386,-2.39826 -1.56147,-5.09154 1,-4.66662 1.2375,0.20529 1.6636,0.17626 0.9469,-0.0645 -1.00307,-0.33696 -1.03454,-0.76135 -0.1367,-1.84319 0.64153,-0.77299 1.49043,-1.20519 1.88644,-0.96044 0.39601,0.24475 0.75564,-0.0977 0.79916,-0.76101 0.0435,-0.6633 0.53379,-2.65693 1.08948,-4.43028 0.73933,-2.35939 0.70212,-3.16411 -0.13872,-3 -0.63199,0.12335 -1.30299,-0.78388 -1.4911,-2.01606 -0.24718,-1.61908 0.37016,-2.56482 2.22626,-3.41051 3.14948,-1.435 3.29487,-3.38993 0.36858,-4.95604 -1.87967,-1.00597 -2.40662,-0.8656 -3.62197,0.96482 -0.78225,1.17813 -2.37989,2.0972 -3.5503,2.04238 -1.93267,-0.0905 -1.89852,-0.18009 0.37197,-0.97556 2.26101,-0.79215 2.18538,-0.8464 -0.79113,-0.56748 -2.55954,0.23985 -3.22415,-0.0435 -2.98979,-1.27444 0.16574,-0.87056 1.42175,-1.73637 2.79114,-1.92402 1.36938,-0.18764 3.26151,-1.03062 4.20474,-1.87327 1.63558,-1.46119 3.76634,-1.42135 8.28504,0.15492 1.41756,0.4945 1.30542,0.28223 -0.3851,-0.72889 -2.8926,-1.7301 -2.11968,-2.27158 4.3851,-3.07203 3.73953,-0.46016 4.41659,-0.36837 2.68576,0.36413 -2.28206,0.96578 -2.19312,3.07092 0.12326,2.91737 0.65504,-0.0434 0.51598,-0.35513 -0.30902,-0.69269 -0.98988,-0.40502 -0.13967,-1.0322 2.5,-1.8442 2.2,-0.67675 3.2125,-1.26504 2.25,-1.30731 -0.9625,-0.0423 -1.80625,-0.52685 -1.875,-1.07685 -0.0687,-0.55 -0.18125,-1.4125 -0.25,-1.91667 -0.0687,-0.50416 -0.4625,-1.17916 -0.875,-1.5 -0.4125,-0.32083 -0.53181,-0.29014 -0.26513,0.0682 0.8084,1.08629 -4.79909,3.49956 -6.87201,2.95748 -1.06491,-0.27848 -2.87595,0.0329 -4.02453,0.69204 -1.14858,0.6591 -3.21333,1.29283 -4.58833,1.4083 -1.375,0.11546 -3.96662,0.50478 -5.75916,0.86514 -1.91279,0.38453 -3.81589,0.19315 -4.60684,-0.46328 -0.75066,-0.62299 -2.68598,-0.85081 -4.36867,-0.51428 -4.52708,0.90542 -10.75966,-2.91907 -7.96254,-4.88604 0.72059,-0.50674 0.33497,-0.60058 -0.96863,-0.23572 -1.19122,0.3334 -2.42916,0.18013 -2.751,-0.34061 -0.32183,-0.52074 -1.4847,-0.71156 -2.58416,-0.42405 -1.48518,0.38839 -1.999,0.0301 -1.999,-1.39388 0,-1.05415 -0.5625,-2.48466 -1.25,-3.17891 -1.00119,-1.01102 -0.90166,-1.45882 0.5,-2.24969 1.92122,-1.08402 2.3552,-4.39596 0.70932,-5.41317 -0.57237,-0.35375 -0.77765,-1.47191 -0.45617,-2.4848 0.35725,-1.12559 -0.0345,-2.18806 -1.00767,-2.73265 -0.8757,-0.49007 -1.66384,-1.84233 -1.75142,-3.00502 -0.0876,-1.1627 -0.47083,-2.03263 -0.85165,-1.93319 -0.7102,0.18544 -0.90389,-0.38193 -0.8771,-2.5692 0.0109,-0.88854 0.27223,-0.84421 0.90376,0.15329 0.63993,1.01077 0.84544,0.68466 0.73469,-1.1659 -0.0846,-1.41305 -0.326,-2.39729 -0.53651,-2.1872 -0.53369,0.53261 -3.5086,-3.41492 -5.50154,-7.30019 -2.17076,-4.23195 -5.32718,-4.25678 -12.57836,-0.0989 -13.12932,7.52838 -25.27583,24.62974 -28.45096,40.05678 -1.93711,9.41191 -1.9362,9.32736 -0.0845,7.79061 1.20987,-1.0041 2.1334,-0.93928 4.75,0.3334 3.13822,1.52638 3.26688,1.50519 3.80223,-0.62601 0.4529,-1.80298 1.22458,-2.18493 4.22528,-2.09133 2.01915,0.063 3.44997,-0.24342 3.17959,-0.6809 -0.27038,-0.43748 -0.0343,-1.07807 0.52472,-1.42353 0.56461,-0.34895 1.01631,0.30096 1.01631,1.46229 0,2.56779 2.50177,3.68601 4.51274,2.01706 2.24996,-1.8673 5.03373,0.59813 3.26682,2.89325 -0.84426,1.09666 -0.53928,1.01579 0.94738,-0.2512 1.51068,-1.28747 2.98739,-1.66901 4.74875,-1.22694 2.10654,0.52871 2.72504,0.1977 3.51554,-1.88148 1.02792,-2.70362 3.00877,-3.4388 3.00877,-1.11668 0,0.82646 0.72161,1.23999 1.75,1.00287 2.36851,-0.54613 5.50471,2.03225 5.08787,4.18291 -0.38791,2.00137 -11.75724,9.33062 -13.48672,8.69423 -0.63187,-0.2325 -1.4889,0.12747 -1.90451,0.79994 -0.51341,0.83072 -0.3054,0.99091 0.64885,0.49969 0.77248,-0.39765 -0.13115,0.63917 -2.00806,2.30404 -1.87691,1.66486 -3.85894,2.75115 -4.40451,2.41398 -0.54556,-0.33718 -0.68081,-0.10965 -0.30055,0.50563 0.40518,0.6556 -0.87619,2.10183 -3.09549,3.49374 -3.56237,2.23425 -4.91021,2.99215 -13.04435,7.33498 -2.54134,1.35682 -3.12371,2.19231 -2.64903,3.80039 0.33465,1.13367 1.35051,2.64309 2.25747,3.35427 0.90697,0.71117 1.70528,1.72367 1.77403,2.25 0.0688,0.52632 0.18125,1.40695 0.25,1.95695 0.0688,0.55 0.34718,1 0.61872,1 0.27155,0 0.37104,-0.7875 0.22107,-1.75 z m 65.47467,-22.31823 c -1.00541,-1.60993 -1.92401,-1.92935 -4.14535,-1.44146 -1.71421,0.37651 -3.13644,0.16931 -3.56178,-0.5189 -0.95628,-1.5473 0.42845,-2.74596 3.89036,-3.36762 3.41018,-0.61236 4.72524,-1.60379 2.12731,-1.60379 -1.00833,0 -1.54942,-0.28391 -1.20242,-0.63091 0.50699,-0.507 7.1199,1.97066 8.56166,3.2078 0.69307,0.59471 -2.35837,6.42311 -3.3628,6.42311 -0.55844,0 -1.59658,-0.93071 -2.30698,-2.06823 z m 4.24028,-2.81808 c 0.82424,-1.33366 -3.54711,-2.16475 -5.35427,-1.01796 -1.23176,0.78166 -1.08461,0.86557 0.67453,0.38463 1.31223,-0.35876 2.25,-0.17026 2.25,0.45225 0,1.29135 1.66678,1.41557 2.42974,0.18108 z m -24.60831,-16.4351 c -0.92322,-0.92322 -2.39984,-1.67859 -3.28139,-1.67859 -2.45052,0 -2.93144,-2.66452 -0.87718,-4.85997 1.82402,-1.94939 1.85594,-1.94797 4.47026,0.19828 1.44821,1.18893 2.94019,3.28669 3.3155,4.66169 0.47734,1.74877 0.39265,2.08077 -0.28184,1.10485 -0.78704,-1.13877 -1.02878,-1.06001 -1.3155,0.4286 -0.32886,1.70733 -0.45842,1.7166 -2.02985,0.14514 z m -2.82143,-3.11957 c 0,-0.24254 -0.45,-0.7191 -1,-1.05902 -0.55,-0.33992 -1,-0.14148 -1,0.44098 0,0.58246 0.45,1.05902 1,1.05902 0.55,0 1,-0.19844 1,-0.44098 z m 4.39699,-0.39235 c 0.28327,-0.45834 -0.12038,-0.83334 -0.89699,-0.83334 -0.77661,0 -1.18026,0.375 -0.89699,0.83334 0.28326,0.45833 0.68691,0.83333 0.89699,0.83333 0.21008,0 0.61373,-0.375 0.89699,-0.83333 z m -2.39699,-2.60765 c 0,-0.24254 -0.45,-0.7191 -1,-1.05902 -0.55,-0.33992 -1,-0.14148 -1,0.44098 0,0.58246 0.45,1.05902 1,1.05902 0.55,0 1,-0.19844 1,-0.44098 z m -16.46165,3.09268 c -1.03728,-0.75848 -1.52583,-1.86295 -1.1168,-2.52477 0.39991,-0.64707 0.35616,-1.11204 -0.0972,-1.03329 -2.13047,0.3701 -3.37669,-0.19991 -2.72884,-1.24815 0.47161,-0.76309 0.27075,-0.88086 -0.59248,-0.34736 -1.03839,0.64177 -0.97473,1.04938 0.3107,1.98931 1.2306,0.89984 1.33842,1.46042 0.45149,2.34736 -1.65965,1.65965 -3.24466,1.44783 -1.83909,-0.24577 0.80051,-0.96456 0.83925,-1.61601 0.12244,-2.05902 -0.57671,-0.35642 -1.04856,-0.0965 -1.04856,0.57764 0,0.67413 -0.28596,0.93973 -0.63546,0.59022 -0.89057,-0.89056 2.41502,-5.69787 3.91797,-5.69787 0.68002,0 1.79846,0.9 2.48542,2 0.68696,1.1 1.80771,1.99311 2.49054,1.98469 0.81643,-0.0101 0.72792,-0.34723 -0.25847,-0.98469 -1.2819,-0.82843 -1.24555,-0.9716 0.25,-0.98469 0.9625,-0.008 1.75614,0.54719 1.76365,1.23469 0.008,0.6875 0.285,2.2625 0.61664,3.5 0.70119,2.6165 -1.17992,3.03102 -4.09194,0.9017 z m 2.44159,-1.17587 c -0.69572,-0.83829 -1.52528,-1.26382 -1.84348,-0.94562 -0.3182,0.31819 0.0834,0.99718 0.8925,1.50885 2.11697,1.33881 2.39358,1.17499 0.95098,-0.56323 z m -4.72994,-12.82144 c -2.44716,-2.41967 -2.95356,-4.65439 -1.05472,-4.65439 1.51424,0 6.80981,5.02077 6.78941,6.43709 -0.008,0.5846 -0.45153,0.38791 -0.98469,-0.43709 -0.64625,-1 -0.97448,-1.08333 -0.98469,-0.25 -0.022,1.79222 -1.18773,1.45301 -3.76531,-1.09561 z m 0.72994,-2.17856 c -0.69572,-0.83829 -1.47088,-1.31823 -1.72258,-1.06653 -0.69349,0.6935 0.71555,2.5907 1.9241,2.5907 0.66309,0 0.58723,-0.57378 -0.20152,-1.52417 z m 6.23256,2.33667 c -0.66688,-0.66688 -1.2125,-1.74935 -1.2125,-2.40551 0,-0.65616 -0.675,-1.45203 -1.5,-1.76862 -1.67862,-0.64414 -2.01486,-3.20214 -0.54068,-4.11323 0.52763,-0.32609 1.76513,-0.1605 2.75,0.36798 0.98488,0.52849 2.6067,1.21555 3.60406,1.52682 1.14556,0.35751 1.52754,1.02844 1.03722,1.8218 -0.4269,0.69073 -0.79292,2.11693 -0.81339,3.16935 -0.0456,2.34327 -1.68979,3.03633 -3.32471,1.40141 z m 2.00363,-1.65776 c -0.7712,-0.48934 -1.00136,-1.55085 -0.57639,-2.6583 0.54417,-1.41807 0.34025,-1.70274 -0.88337,-1.23319 -0.95648,0.36703 -1.83262,-0.0196 -2.19715,-0.96952 -0.33346,-0.86899 -0.86033,-1.32595 -1.17081,-1.01547 -0.76707,0.76706 3.71946,6.72561 5.04965,6.70643 0.58407,-0.008 0.4842,-0.3819 -0.22193,-0.82995 z m 24.28387,57.84526 c 0.33992,-0.55 0.14148,-1 -0.44098,-1 -0.58246,0 -1.05902,0.45 -1.05902,1 0,0.55 0.19844,1 0.44098,1 0.24254,0 0.7191,-0.45 1.05902,-1 z m -23.5,-3 c 0,-0.55 -0.19844,-1 -0.44098,-1 -0.24254,0 -0.7191,0.45 -1.05902,1 -0.33992,0.55 -0.14148,1 0.44098,1 0.58246,0 1.05902,-0.45 1.05902,-1 z m 14.5,-3.60239 c -1.1,-0.84632 -1.91862,-1.86366 -1.81915,-2.26075 0.0995,-0.39709 -1.25053,-0.76177 -3,-0.81041 -2.09805,-0.0583 -2.40196,0.0667 -0.89277,0.36711 1.25844,0.25053 2.82919,1.32198 3.49054,2.38098 0.66136,1.059 1.88173,1.91115 2.71193,1.89366 1.14343,-0.0241 1.02448,-0.40494 -0.49055,-1.57059 z m -55.21433,-3.41319 c -0.77362,-2.95833 -2.07759,-3.34676 -1.52464,-0.45416 0.25967,1.35836 0.82754,2.46974 1.26193,2.46974 0.43439,0 0.55261,-0.90701 0.26271,-2.01558 z m 61.96433,1.3533 c -0.6875,-0.27741 -1.8125,-0.27741 -2.5,0 -0.6875,0.27741 -0.125,0.50439 1.25,0.50439 1.375,0 1.9375,-0.22698 1.25,-0.50439 z m 23.75,-1.7787 c 0,-0.24254 -0.45,-0.7191 -1,-1.05902 -0.55,-0.33992 -1,-0.14148 -1,0.44098 0,0.58246 0.45,1.05902 1,1.05902 0.55,0 1,-0.19844 1,-0.44098 z m -40.54271,-1.48992 c 0.31644,-0.512 0.0485,-1.25653 -0.59549,-1.65451 -0.69784,-0.43129 -0.9039,-0.29172 -0.51008,0.34549 0.36341,0.58801 0.0954,1.29701 -0.59549,1.57556 -0.89914,0.3625 -0.91769,0.52891 -0.0653,0.58541 0.65504,0.0434 1.44988,-0.33996 1.76631,-0.85195 z m -36.93083,-1.87597 c -0.30789,-0.30789 -1.11479,-6.4e-4 -1.79313,0.68278 -0.98026,0.98762 -0.8654,1.10248 0.5598,0.5598 0.98622,-0.37553 1.54122,-0.93469 1.23333,-1.24258 z m 33.47354,1.01967 c 0,-0.43295 -1.00683,-0.86303 -2.23739,-0.95573 -1.7584,-0.13246 -1.91897,0.0328 -0.75,0.77188 1.82839,1.15602 2.98739,1.22735 2.98739,0.18385 z m 81,-4.73312 c 0,-2.14894 -1.43556,-1.82551 -4.92327,1.10921 -4.30117,3.61919 -3.83435,4.83827 0.92327,2.41111 2.2,-1.12236 4,-2.7065 4,-3.52032 z m -66.5,3.52032 c 0.33992,-0.55 0.14148,-1 -0.44098,-1 -0.58246,0 -1.05902,0.45 -1.05902,1 0,0.55 0.19844,1 0.44098,1 0.24254,0 0.7191,-0.45 1.05902,-1 z m -43.5,-1.60765 c 0,-0.82763 -1.94173,-1.29565 -2.38691,-0.57533 -0.28881,0.46731 0.13009,0.84965 0.9309,0.84965 0.8008,0 1.45601,-0.12345 1.45601,-0.27432 z m 15.41329,-1.02699 c 0.80743,-2.10412 -1.21962,-2.59575 -2.3091,-0.56003 -0.7514,1.40399 -0.65145,1.86134 0.40679,1.86134 0.77162,0 1.62767,-0.58559 1.90231,-1.30131 z m -11.28573,-1.11536 c 1.21431,-1.54837 1.18902,-1.60698 -0.21957,-0.50868 -0.8756,0.68273 -1.96025,0.90773 -2.41033,0.5 -0.45007,-0.40772 -0.49461,-0.17882 -0.099,0.50868 0.92979,1.61569 1.09309,1.58577 2.72887,-0.5 z m 38.51081,0.25 c -0.41944,-1.09305 0.16195,-1.53147 2.14301,-1.616 1.79882,-0.0768 2.10677,-0.27454 0.91021,-0.58457 -2.67921,-0.6942 -4.74299,0.40306 -4.06774,2.16272 0.32457,0.84582 0.81513,1.53785 1.09013,1.53785 0.275,0 0.24098,-0.675 -0.0756,-1.5 z m 3.36163,1.05902 c 0,-0.24254 -0.45,-0.7191 -1,-1.05902 -0.55,-0.33992 -1,-0.14148 -1,0.44098 0,0.58246 0.45,1.05902 1,1.05902 0.55,0 1,-0.19844 1,-0.44098 z m -12.31689,-5.74652 c -0.31922,-0.79773 -0.55618,-0.56078 -0.60416,0.60417 -0.0434,1.05416 0.19292,1.64479 0.52522,1.3125 0.33229,-0.3323 0.36781,-1.1948 0.0789,-1.91667 z m 5.19848,-0.88568 c -1.5168,-0.93744 -3.15429,-0.17707 -2.36588,1.0986 0.30159,0.48798 1.24666,0.61926 2.10016,0.29174 1.21217,-0.46515 1.27033,-0.76946 0.26572,-1.39034 z m 29.80152,-0.11432 c -0.31922,-0.79773 -0.55618,-0.56078 -0.60416,0.60417 -0.0434,1.05416 0.19292,1.64479 0.52522,1.3125 0.33229,-0.3323 0.36781,-1.1948 0.0789,-1.91667 z m 12.89149,0.0668 c 0.84582,-1.36855 -0.98367,-1.03519 -3.13347,0.57097 -1.87274,1.39917 -1.86131,1.43015 0.32445,0.8793 1.24607,-0.31404 2.51013,-0.96666 2.80902,-1.45027 z m -71.14645,0.21553 c -0.88306,-0.88307 -3.42815,-0.93391 -3.42815,-0.0685 0,0.46716 0.88069,0.78303 1.95709,0.70195 1.07641,-0.0811 1.73838,-0.36614 1.47106,-0.63346 z m 17.16386,-3.33614 c 0.49939,0.40772 0.57748,0.33581 0.17353,-0.1598 -0.40395,-0.49562 0.046,-1.49381 1,-2.2182 0.95395,-0.72439 1.2504,-1.33138 0.65877,-1.34888 -0.59162,-0.0175 -2.16662,1.19208 -3.5,2.68794 -1.33337,1.49586 -1.70791,2.17476 -0.8323,1.50867 0.8756,-0.66608 2.0006,-0.87746 2.5,-0.46973 z m 8.40799,-0.31771 c 0,-0.85746 -0.45734,-1.27636 -1.01631,-0.9309 -0.55897,0.34546 -0.75742,1.04702 -0.44098,1.55902 0.85723,1.38704 1.45729,1.12841 1.45729,-0.62812 z m -16,-3.09117 c 0,-0.72338 -3.85398,1.6049 -4.56743,2.75929 -0.37335,0.6041 0.50159,0.32492 1.94431,-0.62038 1.44271,-0.94531 2.62312,-1.90782 2.62312,-2.13891 z m 47.98063,1.13822 c 0.44539,0.27526 1.07183,-0.18235 1.39208,-1.01691 0.47449,-1.2365 0.21621,-1.32149 -1.39522,-0.45908 -1.08762,0.58208 -1.94196,1.60499 -1.89854,2.27314 0.0591,0.9092 0.20636,0.89878 0.58541,-0.0414 0.27855,-0.69093 0.87087,-1.03101 1.31627,-0.75574 z m 17.01937,0.60045 c 0,-1.01666 -2.55691,-0.8649 -3.63772,0.21591 -0.38259,0.38259 0.27939,0.69561 1.47105,0.69561 1.19167,0 2.16667,-0.41018 2.16667,-0.91152 z m -100.07029,-3.3975 c -0.0678,-2.11236 -0.10112,-2.11922 -0.92971,-0.19098 -0.82825,1.92744 -0.86198,1.92042 -0.92972,-0.1933 -0.0387,-1.20631 0.92985,-2.89381 2.15223,-3.75 1.22237,-0.85618 1.82031,-1.5567 1.32874,-1.5567 -2.95204,0 -5.91866,6.29926 -3.91177,8.30615 1.10471,1.10471 2.36346,-0.33262 2.29023,-2.61517 z m 55.57029,2.30902 c 0.33992,-0.55 -0.0835,-1 -0.94098,-1 -0.85746,0 -1.55902,0.45 -1.55902,1 0,0.55 0.42344,1 0.94098,1 0.51754,0 1.2191,-0.45 1.55902,-1 z m -5.25,-1.66228 c -0.6875,-0.27741 -1.8125,-0.27741 -2.5,0 -0.6875,0.27741 -0.125,0.50439 1.25,0.50439 1.375,0 1.9375,-0.22698 1.25,-0.50439 z m 51.13156,-0.88966 c 0.34149,-0.88992 0.17385,-1.29132 -0.39301,-0.94098 -0.5437,0.33602 -0.98855,1.0344 -0.98855,1.55194 0,1.43843 0.71677,1.12146 1.38156,-0.61096 z m -69.40735,-2.62285 c 1.08896,-0.35064 0.9457,-0.61289 -0.54822,-1.00356 -1.52656,-0.3992 -2.06106,-0.0162 -2.17995,1.56213 -0.0866,1.15005 0.16007,1.60165 0.54823,1.00356 0.38815,-0.5981 1.36912,-1.30106 2.17994,-1.56213 z m 9.52579,-1.82521 c -0.33992,-0.55 -1.06803,-1 -1.61803,-1 -0.55,0 -0.72189,0.45 -0.38197,1 0.33992,0.55 1.06803,1 1.61803,1 0.55,0 0.72189,-0.45 0.38197,-1 z m 44.86163,-0.5 c -0.31659,-0.825 -1.03256,-1.5 -1.59106,-1.5 -0.58531,0 -0.48812,0.63541 0.22943,1.5 0.68469,0.825 1.40067,1.5 1.59106,1.5 0.19039,0 0.0872,-0.675 -0.22943,-1.5 z m -10.11163,-0.16228 c -0.6875,-0.27741 -1.8125,-0.27741 -2.5,0 -0.6875,0.27741 -0.125,0.50439 1.25,0.50439 1.375,0 1.9375,-0.22698 1.25,-0.50439 z m 15.75,-1.33772 c 0,-0.55 -0.19844,-1 -0.44098,-1 -0.24254,0 -0.7191,0.45 -1.05902,1 -0.33992,0.55 -0.14148,1 0.44098,1 0.58246,0 1.05902,-0.45 1.05902,-1 z m -16.09671,-5.91907 c 1.0041,-0.63571 0.64872,-0.84471 -1.24929,-0.73469 -1.45892,0.0846 -2.65291,0.49126 -2.65329,0.90376 -9.6e-4,1.0157 2.18052,0.92119 3.90258,-0.16907 z m -14.90329,-1.47394 c 0,-0.21616 -0.69837,-0.661 -1.55194,-0.98855 -0.88992,-0.34149 -1.29132,-0.17385 -0.94098,0.39301 0.58726,0.95021 2.49292,1.40545 2.49292,0.59554 z m 4.5,-0.60699 c 0.33992,-0.55 0.14148,-1 -0.44098,-1 -0.58246,0 -1.05902,0.45 -1.05902,1 0,0.55 0.19844,1 0.44098,1 0.24254,0 0.7191,-0.45 1.05902,-1 z m 19.5,-0.54484 c 0,-0.18197 -0.86882,-0.26542 -1.93072,-0.18542 -1.0619,0.08 -1.72249,0.48237 -1.46798,0.89417 0.42244,0.68351 3.3987,0.0629 3.3987,-0.70875 z m 8,-1.45516 c 0.825,-0.53316 1.05,-0.96937 0.5,-0.96937 -0.55,0 -1.675,0.43621 -2.5,0.96937 -0.825,0.53316 -1.05,0.96937 -0.5,0.96937 0.55,0 1.675,-0.43621 2.5,-0.96937 z m -10.60301,-0.83333 c 0.28327,-0.45834 -0.12038,-0.83334 -0.89699,-0.83334 -0.77661,0 -1.18026,0.375 -0.89699,0.83334 0.28326,0.45833 0.68691,0.83333 0.89699,0.83333 0.21008,0 0.61373,-0.375 0.89699,-0.83333 z m 4.33218,0.22916 c -0.3323,-0.33229 -1.1948,-0.36781 -1.91667,-0.0789 -0.79773,0.31923 -0.56078,0.55619 0.60417,0.60417 1.05416,0.0434 1.64479,-0.19293 1.3125,-0.52522 z m -17,-1 c -0.3323,-0.33229 -1.1948,-0.36781 -1.91667,-0.0789 -0.79773,0.31923 -0.56078,0.55619 0.60417,0.60417 1.05416,0.0434 1.64479,-0.19293 1.3125,-0.52522 z m 6.62017,-4.92785 c -0.78123,-2.03586 -1.2526,-1.83382 -1.07961,0.46274 0.08,1.0619 0.48237,1.72249 0.89418,1.46798 0.41181,-0.25451 0.49525,-1.12334 0.18543,-1.93073 z m 0.39359,-10.70537 c 0.12708,-1.6871 -0.0503,-1.88331 -0.72121,-0.79775 -0.48937,0.79181 -0.66789,1.79863 -0.39672,2.23739 0.75437,1.22061 0.93507,0.98792 1.11793,-1.43964 z m -25.24293,0.23739 c 0.33992,-0.55 0.14148,-1 -0.44098,-1 -0.58246,0 -1.05902,0.45 -1.05902,1 0,0.55 0.19844,1 0.44098,1 0.24254,0 0.7191,-0.45 1.05902,-1 z m -1.5,-8 c 0,-0.55 -0.47656,-1 -1.05902,-1 -0.58246,0 -0.7809,0.45 -0.44098,1 0.33992,0.55 0.81648,1 1.05902,1 0.24254,0 0.44098,-0.45 0.44098,-1 z m -6.33333,-12.66667 c 0,-0.73333 -0.81088,-1.33333 -1.80195,-1.33333 -1.09078,0 -1.60002,0.52622 -1.2903,1.33333 0.2814,0.73334 1.09228,1.33334 1.80195,1.33334 0.70966,0 1.2903,-0.6 1.2903,-1.33334 z m 30.87445,-0.39986 c 1.02606,-1.66021 0.10511,-1.89043 -1.33055,-0.33261 -0.70918,0.76953 -0.84824,1.39914 -0.30901,1.39914 0.53922,0 1.27702,-0.47994 1.63956,-1.06653 z m -2.16942,-1.72588 c 0.26936,-0.43583 -0.48591,-0.86591 -1.67837,-0.95574 -1.71758,-0.12938 -1.85904,0.0321 -0.68072,0.7771 1.82243,1.15226 1.76027,1.14755 2.35909,0.17864 z m -22.64253,-3.81176 c -0.3323,-0.33229 -1.1948,-0.36782 -1.91667,-0.0789 -0.79773,0.31923 -0.56078,0.55619 0.60417,0.60417 1.05416,0.0434 1.64479,-0.19293 1.3125,-0.52522 z m 11.27083,-0.94973 c 0,-0.17641 -1.9125,-0.28844 -4.25,-0.24895 -2.83131,0.0478 -3.60532,0.30285 -2.31872,0.76399 1.7581,0.63014 6.56872,0.25295 6.56872,-0.51504 z m 5.72917,0.94973 c -0.3323,-0.33229 -1.1948,-0.36782 -1.91667,-0.0789 -0.79773,0.31923 -0.56078,0.55619 0.60417,0.60417 1.05416,0.0434 1.64479,-0.19293 1.3125,-0.52522 z m -21.83857,-2.83857 c -2.11844,-2.11843 -7.73593,-5.04548 -9.1406,-4.76279 -2.61672,0.5266 -2.12767,1.65472 1.5,3.46015 2.88692,1.43677 8.77932,2.44137 7.6406,1.30265 z m 31.8594,128.78046 c 0.6875,-0.27741 1.8125,-0.27741 2.5,0 0.6875,0.27741 0.125,0.50439 -1.25,0.50439 -1.375,0 -1.9375,-0.22698 -1.25,-0.50439 z m 7.25,0.26927 c 0,-0.21616 0.69837,-0.661 1.55194,-0.98855 0.88992,-0.34149 1.29132,-0.17385 0.94098,0.39301 -0.58726,0.95021 -2.49292,1.40545 -2.49292,0.59554 z m 67.73097,-3.02927 c -5.12598,-3.09366 -5.07984,-3.0024 -3.27903,-6.48479 2.71848,-5.25696 7.87554,-2.85081 6.07162,2.83285 -0.37711,1.18815 -0.0373,2.24699 0.88725,2.76437 0.82416,0.46122 1.17699,1.35877 0.78406,1.99454 -0.50668,0.81984 -1.80462,0.49797 -4.4639,-1.10697 z m 1.07866,-5.32772 c -0.40593,-2.10784 -2.18068,-1.97493 -2.63295,0.19718 -0.18865,0.90598 0.36259,1.55282 1.32332,1.55282 1.02996,0 1.52043,-0.6554 1.30963,-1.75 z m -64.80963,6.28334 c 0,-0.24049 2.11992,-1.8958 4.71093,-3.67846 2.59101,-1.78266 6.41601,-4.78164 8.5,-6.6644 2.08399,-1.88276 3.76722,-3.03334 3.74052,-2.55684 -0.0907,1.61869 -16.95145,14.44936 -16.95145,12.8997 z m -132.33628,-3.20295 c -0.36828,-0.36829 1.11226,-1.73219 3.2901,-3.0309 2.61101,-1.55702 3.76768,-2.86166 3.39595,-3.83038 -0.31006,-0.80801 -0.1781,-1.45804 0.29324,-1.44451 1.3016,0.0374 4.40491,6.82775 3.4033,7.44678 -0.48152,0.29759 -1.08321,-0.0242 -1.33709,-0.71515 -0.35061,-0.95419 -1.23214,-0.83548 -3.66645,0.49377 -3.50684,1.9149 -4.37097,2.08846 -5.37905,1.08039 z m 179.1274,-3.37676 c 1.26012,-0.50578 2.93,-2.38976 3.71086,-4.18662 0.78085,-1.79685 1.43735,-2.68216 1.45888,-1.96735 0.0885,2.9395 -3.03722,7.19963 -5.23654,7.13695 l -2.22432,-0.0634 2.29112,-0.9196 z m 21.44217,-4.99036 -4.2667,-1.89545 1.33997,-3.28391 c 0.99629,-2.44162 1.96242,-3.28391 3.76671,-3.28391 2.06051,0 2.43556,0.49174 2.48525,3.25852 0.0322,1.79219 0.59469,3.79469 1.25,4.45 1.33843,1.33843 1.58014,2.82809 0.44148,2.72084 -0.4125,-0.0388 -2.67002,-0.92359 -5.01671,-1.96609 z m 1.76671,-4.5466 c 0,-0.87084 -0.53438,-1.40521 -1.1875,-1.1875 -1.85422,0.61807 -2.16176,2.77083 -0.39583,2.77083 0.87083,0 1.58333,-0.7125 1.58333,-1.58333 z m -206,4.68783 c 0,-1.27428 8.13557,-5.13875 9.30138,-4.41823 0.53341,0.32966 -0.77869,1.65781 -2.91577,2.95143 -4.05505,2.45462 -6.38561,2.98996 -6.38561,1.4668 z m 188.68549,-6.6045 c 0.34437,-2.2 0.96734,-5.125 1.38437,-6.5 0.7322,-2.41417 0.75857,-2.39701 0.76811,0.5 0.005,1.65 -0.61753,4.575 -1.38437,6.5 l -1.39424,3.5 0.62613,-4 z m -191.68549,-0.9863 c 0,-0.76133 1.57646,-1.9543 3.50325,-2.65104 2.67617,-0.96771 3.36853,-1.69127 2.93262,-3.06473 -1.09474,-3.44921 1.36211,-1.76827 2.85311,1.95207 1.64535,4.10546 1.22963,6.3415 -0.69073,3.71526 -1.10611,-1.51271 -1.5262,-1.5222 -4.904,-0.11087 -3.06975,1.28262 -3.69425,1.30956 -3.69425,0.15931 z m 210.8711,-3.18916 c -3.53847,-1.46628 -3.60282,-1.58873 -2.58222,-4.91414 1.31338,-4.27939 2.87743,-4.49194 2.03433,-0.27647 -0.47984,2.39921 -0.30461,3.02654 0.74742,2.67586 0.75581,-0.25194 1.67926,-1.54971 2.05211,-2.88393 0.74091,-2.65135 1.20421,-1.72912 0.91639,1.82414 -0.24794,3.06083 1.78234,2.84978 2.98375,-0.31017 0.53536,-1.4081 1.39811,-2.29768 1.91723,-1.97684 1.28304,0.79296 -1.38607,6.99091 -3.10112,7.20115 -0.73645,0.0903 -2.97199,-0.51254 -4.96789,-1.3396 z m -213.6711,-4.52454 c -1.4537,-1.4537 -1.59033,-6.44073 -0.2,-7.3 1.01984,-0.63029 1.37068,0.62 1.0523,3.75 -0.0979,0.9625 0.30027,1.75 0.88484,1.75 0.58457,0 1.06286,-0.8632 1.06286,-1.91821 0,-3.19187 1.1157,-5.08179 3,-5.08179 2.79451,0 4.28211,6.08958 1.85416,7.59014 -0.80332,0.49647 -0.95169,-0.0654 -0.49633,-1.8797 0.35723,-1.42333 0.21105,-2.85885 -0.32484,-3.19005 -0.5359,-0.3312 -1.25013,0.65372 -1.5872,2.18871 -1.032,4.69978 -1.33526,5.2909 -2.71441,5.2909 -0.73226,0 -1.87138,-0.54 -2.53138,-1.2 z m 27.49125,-0.44805 c 1.56491,-0.33969 2.31682,-1.38696 2.63052,-3.6638 0.42361,-3.07453 0.43462,-3.06342 0.30875,0.31185 -0.11128,2.98407 -0.49904,3.52415 -2.63052,3.6638 -2.08746,0.13678 -2.13841,0.0853 -0.30875,-0.31185 z m 169.38318,-0.90716 c -0.0409,-0.58037 1.01707,-4.18037 2.35114,-8 1.33406,-3.81964 2.45906,-6.46994 2.5,-5.88958 0.0409,0.58037 -1.01707,4.18037 -2.35114,8 -1.33406,3.81964 -2.45906,6.46994 -2.5,5.88958 z m 19.3452,-4.77087 c -2.83706,-1.08119 -3.0151,-1.4207 -2.254,-4.29816 1.09972,-4.15766 3.16199,-5.88102 4.97842,-4.16028 0.74577,0.70649 2.21845,1.28452 3.27262,1.28452 2.73739,0 3.13794,2.28133 0.46929,2.6729 -2.94776,0.43252 -3.53198,2.48729 -0.94101,3.30963 1.13028,0.35873 2.05505,1.07192 2.05505,1.58486 0,1.24944 -3.78488,1.05298 -7.58037,-0.39347 z m 2.08037,-4.50725 c 0,-1.80866 -1.9573,-1.47847 -2.3455,0.39568 -0.21599,1.04271 0.15888,1.49986 1,1.21948 0.74002,-0.24667 1.3455,-0.9735 1.3455,-1.61516 z m -189.12593,-7.66667 c 0.002,-6.05 0.16696,-8.39607 0.36601,-5.21349 0.19905,3.18258 0.1972,8.13258 -0.004,11 -0.20131,2.86742 -0.36417,0.26349 -0.36191,-5.78651 z m -32.82464,6.57998 c -0.31273,-0.50601 0.89821,-2.12377 2.69098,-3.59503 l 3.25959,-2.675 -3.25,0.57002 c -2.33747,0.40998 -3.25,0.19262 -3.25,-0.77413 0,-1.17041 4.68252,-2.55902 8.75,-2.59483 1.96722,-0.0173 1.45929,2.84134 -0.75,4.22106 -2.70997,1.69241 -2.51569,2.76793 0.5,2.76793 1.375,0 2.5,0.39752 2.5,0.88337 0,1.86452 -9.37439,2.93791 -10.45057,1.19661 z m 48.60846,-1.07998 c 0,-1.375 0.22698,-1.9375 0.50439,-1.25 0.27741,0.6875 0.27741,1.8125 0,2.5 -0.27741,0.6875 -0.50439,0.125 -0.50439,-1.25 z m 156.99719,-4.5 c 0.002,-0.55 0.59922,-4.15 1.32803,-8 1.21015,-6.39267 1.32684,-6.60957 1.34493,-2.5 0.0109,2.475 -0.58673,6.075 -1.32804,8 -0.74131,1.925 -1.34653,3.05 -1.34492,2.5 z m -159.68423,-7.84584 c -0.37356,-2.49103 -0.47329,-5.11977 -0.22163,-5.84165 0.25165,-0.72188 0.79472,1.0788 1.20681,4.00151 0.41209,2.92272 0.51182,5.55146 0.22163,5.84165 -0.29019,0.2902 -0.83326,-1.51048 -1.20681,-4.00151 z m -47.47085,0.89942 c 0,-1.65146 9.15453,-2.67268 10.19563,-1.13736 0.89061,1.3134 1.17177,1.20558 -4.94563,1.89655 -4.03731,0.45602 -5.25,0.28066 -5.25,-0.75919 z m 9,-14.91434 c 0,-16.69486 5.45362,-37.40374 13.68542,-51.96728 7.72768,-13.67166 20.69473,-28.59853 30.7809,-35.43306 2.21852,-1.5033 4.25868,-3.02146 4.53368,-3.37368 1.24256,-1.59149 14.28933,-8.04126 22,-10.87589 11.91142,-4.37892 22.69936,-6.32493 35.5,-6.40376 40.81465,-0.25138 78.11078,23.34366 96.30455,60.92614 3.52808,7.2879 7.58609,19.02856 9.15533,26.48829 1.51951,7.22332 2.6144,30.00014 1.4421,29.99953 -0.49609,-2.7e-4 -1.01612,-5.07954 -1.15562,-11.28728 -0.28277,-12.583 -3.19803,-26.17602 -8.19528,-38.21225 -2.75555,-6.63693 -7.78103,-16.41765 -8.99177,-17.5 -0.30762,-0.275 -2.08462,-2.75 -3.94889,-5.5 -4.58934,-6.7698 -18.54863,-20.40518 -25.74153,-25.14424 -19.20329,-12.65213 -36.16899,-17.83657 -58.36889,-17.83657 -34.81464,0 -64.49796,15.56462 -85.10095,44.62319 -13.59431,19.17349 -19.89905,38.35515 -19.89905,60.54128 0,6.21089 -0.39796,10.31634 -1,10.31634 -0.59545,0 -1,-3.78692 -1,-9.36076 z m 26.10957,7.2889 c -0.11497,-2.6986 2.81384,-12.33806 3.53088,-11.62103 0.22853,0.22853 -0.0845,1.71542 -0.69568,3.3042 -0.61116,1.58878 -1.47445,4.68869 -1.91842,6.88869 -0.5744,2.84633 -0.83882,3.25823 -0.91678,1.42814 z m 173.69564,-5.60975 c -1.32449,-9.87791 -6.40556,-16.48693 -12.85008,-16.7143 -1.62281,-0.0572 -2.9516,-0.59685 -2.95285,-1.1991 -0.003,-1.41402 -3.83894,-4.90166 -4.57817,-4.16243 -0.31,0.31 0.39915,2.45084 1.57589,4.75744 1.17674,2.3066 1.95354,4.37979 1.72623,4.6071 -0.22731,0.22731 -1.22704,-1.3913 -2.22163,-3.59691 -0.99459,-2.2056 -2.43254,-4.01019 -3.19543,-4.01019 -0.98095,0 -0.78545,-0.64577 0.66769,-2.20554 l 2.05478,-2.20554 2.92781,3.20554 c 1.61029,1.76305 3.68756,3.20554 4.61615,3.20554 6.1379,0 13.81948,11.25918 13.22531,19.38486 l -0.30091,4.11514 -0.69479,-5.18161 z m -162.55303,-2.81839 c 0.0111,-2.2 0.21589,-2.98225 0.45508,-1.73834 0.23919,1.24391 0.23011,3.04391 -0.0202,4 -0.25029,0.95609 -0.446,-0.0617 -0.4349,-2.26166 z m -7.23687,-5.72583 c -0.008,-0.94921 -0.91363,-3.19921 -2.01157,-5 -1.09795,-1.80079 -1.98806,-3.94917 -1.97804,-4.77417 0.01,-0.825 0.90042,0.44395 1.97866,2.81989 1.07824,2.37595 2.41836,4.03689 2.97804,3.69099 1.28741,-0.79567 1.29903,1.50626 0.0176,3.48912 -0.83123,1.28623 -0.97156,1.25404 -0.98469,-0.22583 z m 156.98469,0.22583 c 0,-0.55 0.45,-1 1,-1 0.55,0 1,0.45 1,1 0,0.55 -0.45,1 -1,1 -0.55,0 -1,-0.45 -1,-1 z m -148.95899,-4.61364 c 0.0226,-0.4875 1.91382,-2.91136 4.2028,-5.38636 2.98776,-3.23057 3.63733,-3.65371 2.30265,-1.5 -2.18707,3.52916 -6.56452,8.16293 -6.50545,6.88636 z M 139.33442,307.5937 c -0.0991,-2.58004 0.31752,-4.99862 0.9259,-5.37462 0.60838,-0.376 2.52088,0.7721 4.25,2.55134 2.57933,2.6541 2.72969,3.02386 0.83736,2.05921 -1.26856,-0.64668 -2.55421,-1.82134 -2.85699,-2.61037 -1.08276,-2.82162 -2.23317,-1.3555 -2.60148,3.31542 l -0.37454,4.75 -0.18025,-4.69098 z m 10.58141,0.48372 c 1.24391,-0.23919 3.04391,-0.23011 4,0.0202 0.95609,0.25029 -0.0617,0.446 -2.26166,0.4349 -2.2,-0.0111 -2.98225,-0.21589 -1.73834,-0.45508 z m 6.98834,-0.95502 c 0.6875,-0.27741 1.8125,-0.27741 2.5,0 0.6875,0.27741 0.125,0.50438 -1.25,0.50438 -1.375,0 -1.9375,-0.22697 -1.25,-0.50438 z m 113.12244,-19.08772 c -1.22784,-1.56562 -1.19744,-1.61318 0.28853,-0.45144 1.83617,1.43553 2.24187,1.04018 3.24944,-3.16656 0.37781,-1.5774 0.87783,-2.6771 1.11115,-2.44377 0.68988,0.68988 -1.54021,7.81177 -2.44612,7.81177 -0.4568,0 -1.44815,-0.7875 -2.203,-1.75 z m -2.20577,-2.91667 c -0.36667,-0.36666 -0.65299,-1.37916 -0.63626,-2.25 0.025,-1.3003 0.22011,-1.2571 1.09166,0.24167 1.07678,1.85169 0.76461,3.22834 -0.4554,2.00833 z m 7.33333,-5.31028 c 0,-1.31562 4.89668,-4.4597 5.69787,-3.65851 0.34951,0.3495 0.11046,0.63546 -0.5312,0.63546 -0.64167,0 -2.06667,0.9 -3.16667,2 -1.1,1.1 -2,1.56037 -2,1.02305 z m -15.5,-6.09106 c -3.3,-2.15087 -5.63013,-3.91547 -5.17807,-3.92133 1.28462,-0.0166 9.37129,4.91476 10.71566,6.53463 1.67181,2.01441 1.27578,1.82752 -5.53759,-2.6133 z m -89.5,1.06801 c 0,-0.55 0.47656,-1 1.05902,-1 0.58246,0 0.7809,0.45 0.44098,1 -0.33992,0.55 -0.81648,1 -1.05902,1 -0.24254,0 -0.44098,-0.45 -0.44098,-1 z m 113.25,0.31067 c 0.9625,-0.25152 1.75,-0.7773 1.75,-1.16839 0,-1.64105 -6.46454,-4.33473 -11.69954,-4.87503 -5.22262,-0.53902 -5.58218,-0.44377 -4.91251,1.30133 0.3974,1.03561 -2.68346,-1.7833 -6.84634,-6.26424 -7.76669,-8.36009 -15.40839,-13.57724 -26.79161,-18.29121 -6.35767,-2.6328 -7.46641,-5.14982 -3.75,-8.51313 1.1,-0.99549 2,-1.33838 2,-0.76198 0,0.5764 -0.675,1.30702 -1.5,1.62361 -0.825,0.31658 -1.5,1.41374 -1.5,2.43812 0,1.31176 1.76961,2.65208 5.9843,4.53256 10.2788,4.58613 19.30213,10.62813 25.03323,16.7622 5.3617,5.73871 5.66397,5.90549 10.70294,5.90549 5.31508,0 9.43813,1.26636 12.52953,3.84835 2.45671,2.05188 2.19372,4.17453 -0.5,4.03565 -1.69317,-0.0873 -1.81691,-0.22918 -0.5,-0.57333 z m -109.25,-4.81067 c 1.29174,-1.375 2.57363,-2.5 2.84863,-2.5 0.275,0 -0.55689,1.125 -1.84863,2.5 -1.29175,1.375 -2.57363,2.5 -2.84863,2.5 -0.275,0 0.55688,-1.125 1.84863,-2.5 z m 72.5,-3.02186 c -2.75,-1.29547 -4.4947,-2.38301 -3.87712,-2.41677 1.33817,-0.0731 10.37712,3.83387 10.37712,4.48542 0,0.7861 -1.3562,0.35449 -6.5,-2.06865 z m -72.5,-3.47814 c 0,-0.55 0.45,-1 1,-1 0.55,0 1,0.45 1,1 0,0.55 -0.45,1 -1,1 -0.55,0 -1,-0.45 -1,-1 z m 60,-1 c -1.33333,-0.86167 -1.33333,-0.96937 0,-0.96937 0.825,0 2.175,0.43621 3,0.96937 1.33333,0.86167 1.33333,0.96937 0,0.96937 -0.825,0 -2.175,-0.43621 -3,-0.96937 z m -23.73097,-1.69299 c 0.97297,-0.25354 2.32297,-0.23687 3,0.0371 0.67703,0.27392 -0.11903,0.48137 -1.76903,0.46099 -1.65,-0.0204 -2.20394,-0.2445 -1.23097,-0.49805 z m 18.54347,0.01 c 0.72187,-0.28887 1.58437,-0.25335 1.91667,0.079 0.33229,0.33229 -0.25834,0.56864 -1.3125,0.52522 -1.16495,-0.048 -1.4019,-0.28494 -0.60417,-0.60417 z m -11.0625,-1.04031 c 1.7875,-0.22182 4.7125,-0.22182 6.5,0 1.7875,0.22183 0.325,0.40333 -3.25,0.40333 -3.575,0 -5.0375,-0.1815 -3.25,-0.40333 z m -26.9375,-18.95971 c 0.72187,-0.28888 1.58438,-0.25335 1.91667,0.079 0.33229,0.33229 -0.25834,0.56864 -1.3125,0.52522 -1.16495,-0.048 -1.4019,-0.28494 -0.60417,-0.60417 z m 4.6875,-1.31689 c 1.1,-0.47269 3.35,-0.83782 5,-0.8114 l 3,0.048 -3,0.76337 c -1.65,0.41985 -3.9,0.78498 -5,0.8114 -2,0.048 -2,0.048 0,-0.8114 z m 10,-1.69153 c 1.1,-0.25274 5.22559,-1.55054 9.16797,-2.884 3.94239,-1.33346 8.21739,-2.37227 9.5,-2.30847 2.01502,0.10023 2.06016,0.17633 0.33203,0.55982 -1.1,0.24411 -5.26648,1.54191 -9.25885,2.884 -3.99237,1.3421 -8.26737,2.38798 -9.5,2.32418 -2.02122,-0.10462 -2.04489,-0.1611 -0.24115,-0.57553 z m 25.5,-4.30847 c -1.2819,-0.82843 -1.24555,-0.9716 0.25,-0.98469 0.9625,-0.008 1.75,0.43469 1.75,0.98469 0,1.21961 -0.11279,1.21961 -2,0 z"
       id="path3010"
       style="fill:#000000" />
  </g>
</svg>
